<svg xmlns="http://www.w3.org/2000/svg" viewBox="0 0 64 64">
  <defs>
    <linearGradient id="g" x1="0" y1="0" x2="1" y2="1">
      <stop offset="0" stop-color="#0ea5b7"/>
      <stop offset="1" stop-color="#0b7c8a"/>
    </linearGradient>
  </defs>
  <rect width="64" height="64" rx="14" fill="url(#g)"/>
  <path fill="none" stroke="#fff" stroke-width="3.2" stroke-linecap="round" stroke-linejoin="round"
    d="M20 14C14 14 11 19 11 25c0 5 1.5 8.5 2.5 13 .8 3.6 1.3 8 3.5 8 2.2 0 2.6-3.2 3.2-6.2.6-2.8 1-6.8 3.8-6.8s3.2 4 3.8 6.8c.6 3 1 6.2 3.2 6.2 2.2 0 2.7-4.4 3.5-8 1-4.5 2.5-8 2.5-13 0-6-3-11-9-11-3 0-4.4 1.6-6.8 1.6S23 14 20 14Z"/>
</svg>
